# xmcd
#
# Track frame offsets: 
#        150
#        17727
#        38106
#        63421
#        82881
#        97498
#        118303
#        136650
#        156809
#        174993
#        202584
#        217890
#        233529
#        250089
#        279089
#        298309
#        326401
#
# Disc length: 4793 seconds
#
# Revision: 0
# Processed by: cddbd v1.5.2PL0 Copyright (c) Steve Scherf et al.
# Submitted via: ExactAudioCopy v1.3
#
DISCID=e212b711
DTITLE=Various Artists  - Akella Presents - vol. 125 - Blues-Rock  CD2
DYEAR=2018
DGENRE=Blues
TTITLE0=Bill Durst - King Snake Prowl
TTITLE1=Mush - Best You Couldn't Do
TTITLE2=Alastair Greene Band - Get Out of My Life
TTITLE3=Angel - Piece of my heart
TTITLE4=Renegade Creation - Bullet
TTITLE5=Lisa Lystam Family Band - Give You Everything
TTITLE6=Johnny Neel - Mighty Mississippi
TTITLE7=Amy Douglas and Feints - Dogs
TTITLE8=George Thorogood and The Dastroyers - Help Me
TTITLE9=Polly O'Keary And The Rhythm Method - Reconciled
TTITLE10=Michael Williams Band - Don't Put Me Out
TTITLE11=Laura Cox Band - The Australian Way
TTITLE12=Alistair Greene - Dream Train
TTITLE13=Sena Ehrhardt - Last Chance
TTITLE14=Bjorn Berge - Cypress Grove
TTITLE15=Hurricane Ruth - Change Your Mind
TTITLE16=Julian Sas - County Jail Blues
EXTD=
EXTT0=
EXTT1=
EXTT2=
EXTT3=
EXTT4=
EXTT5=
EXTT6=
EXTT7=
EXTT8=
EXTT9=
EXTT10=
EXTT11=
EXTT12=
EXTT13=
EXTT14=
EXTT15=
EXTT16=
PLAYORDER=
